<svg width="16" height="17" viewBox="0 0 16 17" fill="none" xmlns="http://www.w3.org/2000/svg">
<path fill-rule="evenodd" clip-rule="evenodd" d="M11.8324 4.60681H14.157C14.7053 4.60681 15.1282 5.08977 15.0557 5.63331L13.8326 14.8066C13.7725 15.2571 13.3883 15.5935 12.9339 15.5935H3.06743C2.61301 15.5935 2.22877 15.2571 2.16871 14.8066L0.945604 5.63331C0.873133 5.08977 1.29598 4.60681 1.84432 4.60681H4.16884C4.49585 2.78733 6.08702 1.40674 8.00063 1.40674C9.91425 1.40674 11.5054 2.78733 11.8324 4.60681ZM4.1073 5.99348H2.39256L3.48768 14.2068H12.5136L13.6087 5.99348H11.894V7.4334H10.5073V5.99348H5.49397V7.4334H4.1073V5.99348ZM5.59107 4.60681H10.4102C10.1095 3.55962 9.14453 2.7934 8.00063 2.7934C6.85674 2.7934 5.89181 3.55962 5.59107 4.60681Z" fill="white"/>
</svg>
