<svg width="24" height="24" viewBox="0 0 24 24" fill="none" xmlns="http://www.w3.org/2000/svg">
<g clip-path="url(#clip0_145_1144)">
<path d="M21.7078 20.293L17.1718 15.757C18.5167 14.0515 19.1591 11.8967 18.9676 9.73324C18.7762 7.5698 17.7653 5.56125 16.1419 4.11847C14.5185 2.67568 12.4052 1.9077 10.2342 1.97158C8.06327 2.03547 5.9988 2.92643 4.46304 4.46218C2.92728 5.99794 2.03633 8.06244 1.97244 10.2334C1.90855 12.4043 2.67656 14.5177 4.11935 16.1411C5.56214 17.7645 7.57066 18.7753 9.7341 18.9667C11.8975 19.1582 14.0524 18.5158 15.7578 17.171L20.2938 21.707L21.7078 20.293ZM10.5008 17C9.21524 17 7.95853 16.6187 6.88961 15.9045C5.82069 15.1903 4.9876 14.1751 4.49563 12.9874C4.00366 11.7997 3.87489 10.4927 4.1257 9.23187C4.3765 7.97099 4.99559 6.81282 5.90463 5.90377C6.81367 4.99473 7.97188 4.37568 9.23275 4.12487C10.4936 3.87407 11.8005 4.00278 12.9882 4.49475C14.176 4.98672 15.1911 5.81984 15.9054 6.88876C16.6196 7.95768 17.0008 9.21439 17.0008 10.5C16.9987 12.2232 16.3132 13.8753 15.0947 15.0938C13.8762 16.3123 12.2241 16.9978 10.5008 17Z" fill="#1B1E23"/>
</g>
<defs>
<clipPath id="clip0_145_1144">
<rect width="24" height="24" fill="white"/>
</clipPath>
</defs>
</svg>
