<svg width="24" height="24" viewBox="0 0 24 24" fill="none" xmlns="http://www.w3.org/2000/svg">
<path d="M16.9 6C16.6705 4.86971 16.0573 3.85353 15.1642 3.12363C14.2712 2.39372 13.1534 1.995 12 1.995C10.8466 1.995 9.72877 2.39372 8.83575 3.12363C7.94274 3.85353 7.32949 4.86971 7.09998 6H2L3 22H21L22 6H16.9ZM12 4C12.6183 4.00256 13.2206 4.19607 13.7247 4.55408C14.2287 4.91208 14.6099 5.41709 14.816 6H9.18402C9.3901 5.41709 9.77126 4.91208 10.2753 4.55408C10.7794 4.19607 11.3817 4.00256 12 4ZM19.121 20H4.87903L4.12903 8H7V10H9V8H15V10H17V8H19.871L19.121 20Z" fill="#1B1E23"/>
</svg>
