<svg width="16" height="16" viewBox="0 0 16 16" fill="none" xmlns="http://www.w3.org/2000/svg">
<path d="M8.1125 10.6506C8.38703 9.87384 9.1279 9.3173 9.9987 9.3173C10.8695 9.3173 11.6104 9.87384 11.8849 10.6506H14.6654V11.984H11.8849C11.6104 12.7608 10.8695 13.3173 9.9987 13.3173C9.1279 13.3173 8.38703 12.7608 8.1125 11.984H1.33203V10.6506H8.1125ZM4.1125 3.98397C4.38706 3.20717 5.12788 2.65063 5.9987 2.65063C6.8695 2.65063 7.61037 3.20717 7.8849 3.98397H14.6654V5.3173H7.8849C7.61037 6.09409 6.8695 6.65063 5.9987 6.65063C5.12788 6.65063 4.38706 6.09409 4.1125 5.3173H1.33203V3.98397H4.1125ZM5.9987 5.3173C6.36688 5.3173 6.66536 5.01882 6.66536 4.65063C6.66536 4.28245 6.36688 3.98397 5.9987 3.98397C5.63051 3.98397 5.33203 4.28245 5.33203 4.65063C5.33203 5.01882 5.63051 5.3173 5.9987 5.3173ZM9.9987 11.984C10.3669 11.984 10.6654 11.6855 10.6654 11.3173C10.6654 10.9491 10.3669 10.6506 9.9987 10.6506C9.6305 10.6506 9.33203 10.9491 9.33203 11.3173C9.33203 11.6855 9.6305 11.984 9.9987 11.984Z" fill="#5C6677"/>
</svg>
